Coordinates
version=1
nRows=9
nColumns=63
inDegrees=yes

Units are S.I. units (second, meters, Newtons, ...)
If the header above contains a line with 'inDegrees', this indicates whether rotational values are in degrees (yes) or radians (no).

endheader
time	pelvis_tilt	pelvis_list	pelvis_rotation	pelvis_tx	pelvis_ty	pelvis_tz	hip_flexion_r	hip_adduction_r	hip_rotation_r	knee_angle_r	knee_angle_r_beta	ankle_angle_r	subtalar_angle_r	mtp_angle_r	hip_flexion_l	hip_adduction_l	hip_rotation_l	knee_angle_l	knee_angle_l_beta	ankle_angle_l	subtalar_angle_l	mtp_angle_l	L5_S1_Flex_Ext	L5_S1_Lat_Bending	L5_S1_axial_rotation	L4_L5_Flex_Ext	L4_L5_Lat_Bending	L4_L5_axial_rotation	L3_L4_Flex_Ext	L3_L4_Lat_Bending	L3_L4_axial_rotation	L2_L3_Flex_Ext	L2_L3_Lat_Bending	L2_L3_axial_rotation	L1_L2_Flex_Ext	L1_L2_Lat_Bending	L1_L2_axial_rotation	L1_T12_Flex_Ext	L1_T12_Lat_Bending	L1_T12_axial_rotation	Abs_r3	Abs_r2	Abs_r1	Abs_t1	Abs_t2	neck_flexion	neck_bending	neck_rotation	arm_flex_r	arm_add_r	arm_rot_r	elbow_flex_r	pro_sup_r	wrist_flex_r	wrist_dev_r	arm_flex_l	arm_add_l	arm_rot_l	elbow_flex_l	pro_sup_l	wrist_flex_l	wrist_dev_l
      3.10169492	     -0.37639874	     -0.32928084	     93.18686102	      0.18302789	      1.04071584	      0.35454089	     -4.92447961	      0.20238690	     -8.96480525	     11.83806330	      0.20661318	     26.64252525	     -3.18963191	      0.00000000	     -3.93436965	     -0.83963102	     -3.12240978	      7.41949663	      0.12949464	     30.61439194	     12.31255922	      0.00000000	      0.05392265	      0.18453495	     -0.26342719	      0.10013975	      0.24543148	     -0.27989139	      0.08858952	      0.44867828	     -0.27989139	      0.06162819	      0.44867828	     -0.23049879	      0.05007257	      0.37630367	     -0.21403459	      0.03081140	      0.28584464	     -0.19757039	      0.38516408	      2.08749626	     -1.46510299	      0.00000000	      0.00000000	     15.68635583	     -3.01037251	     -2.15827556	      4.41453522	    -12.04555126	     40.90356737	     27.48397710	     82.05112151	      5.37019016	     -0.99102598	     13.54069851	    -11.38169198	     79.76815245	     25.40687838	     64.67747164	     -3.55126596	    -20.34953627
      3.11864407	     -0.50152391	     -0.48530578	     92.97409387	      0.18358748	      1.04070818	      0.35448381	     -5.23398629	     -0.06695260	    -10.95987654	     10.77445823	      0.18804977	     27.55559674	      1.03035973	      0.00000000	     -4.21018848	     -0.59248790	     -2.00524231	      6.48048954	      0.11310588	     29.89151904	     10.80458445	      0.00000000	      0.04702422	      0.16795999	     -0.11288266	      0.08732868	      0.22338679	     -0.11993783	      0.07725609	      0.40837792	     -0.11993783	      0.05374398	      0.40837792	     -0.09877233	      0.04366669	      0.34250401	     -0.09171716	      0.02686964	      0.26017002	     -0.08466200	      0.33588932	      1.89999700	     -0.62781950	      0.00000000	      0.00000000	     16.62025627	     -2.97013165	     -2.24879274	      4.24559973	    -12.39876718	     42.11772220	     25.83330561	     80.15754596	      6.67683273	     -0.31982069	     10.98321030	    -12.49976202	     66.78071488	     27.70021796	     80.44397734	     -3.58345096	    -15.80683599
      3.13559322	     -0.58017059	     -0.53114229	     92.44098537	      0.18478952	      1.04077034	      0.35484400	     -5.55455961	     -0.03905595	    -10.07326706	      9.65802546	      0.16856434	     27.66503903	      1.70010149	      0.00000000	     -4.61829947	     -0.44035256	     -1.93613326	      5.53618436	      0.09662465	     29.27089505	     10.24359088	      0.00000000	      0.02379299	      0.15525512	      0.14309283	      0.04418597	      0.20648930	      0.15203613	      0.03908951	      0.37748729	      0.15203613	      0.02719301	      0.37748729	      0.12520623	      0.02209417	      0.31659623	      0.11626293	      0.01359532	      0.24049017	      0.10731962	      0.16995096	      1.75627692	      0.79583940	      0.00000000	      0.00000000	     17.32626917	     -3.24582282	     -3.01379675	      3.80835354	    -12.68846335	     42.62149978	     24.35326875	     77.73669594	      7.64558495	      0.83187509	     10.56351916	    -13.54952156	     65.60323472	     29.45029763	     83.03822136	     -5.08543962	    -12.40343031
      3.15254237	     -0.71732869	     -0.56032899	     92.24830630	      0.18556751	      1.04080588	      0.35538016	     -6.00245785	     -0.03408050	     -9.59274347	      8.39507144	      0.14652164	     27.60745664	      2.43624598	      0.00000000	     -4.98390942	     -0.17319875	      0.33726480	      4.66007213	      0.08133360	     28.27870144	      6.99749953	      0.00000000	      0.00416063	      0.13303178	      0.18263977	      0.00772671	      0.17693226	      0.19405475	      0.00683551	      0.32345346	      0.19405475	      0.00475519	      0.32345346	      0.15980980	      0.00386356	      0.27127840	      0.14839481	      0.00237739	      0.20606622	      0.13697983	      0.02971899	      1.50488205	      1.01578760	      0.00000000	      0.00000000	     17.82336639	     -3.16762211	     -3.11186838	      5.24765540	    -13.38266264	     54.23095562	     21.85786168	     64.96754957	      6.90397970	      0.34878966	      9.10594543	    -14.55486039	     61.62054530	     30.79474225	     86.50820214	     -4.95666264	     -9.29152064
      3.16949153	     -0.78680506	     -0.68580867	     91.98344850	      0.18587096	      1.04042174	      0.35649609	     -6.25845546	     -0.01453950	     -8.99835093	      7.30316491	      0.12746427	     27.38052169	      2.75077438	      0.00000000	     -5.09561787	     -0.04380950	      0.32473863	      4.11393547	      0.07180172	     27.75282537	      6.62067507	      0.00000000	     -0.01032119	      0.12942450	      0.24554537	     -0.01916747	      0.17213458	      0.26089195	     -0.01695668	      0.31468272	      0.26089195	     -0.01179608	      0.31468272	      0.21485220	     -0.00958425	      0.26392243	      0.19950561	     -0.00589753	      0.20047854	      0.18415902	     -0.07372320	      1.46407578	      1.36564966	      0.00000000	      0.00000000	     18.44276561	     -3.33266428	     -3.19477143	      4.96879398	    -13.74383480	     54.80792790	     20.89310428	     63.60768955	      6.92960675	      2.31018628	      8.25599016	    -15.26600669	     61.16027252	     30.98538525	     86.82546373	     -5.65772439	     -7.31098563
      3.18644068	     -1.16157273	     -0.95920402	     92.17720366	      0.18713906	      1.04020393	      0.35801788	     -6.40236248	     -0.12422642	     -7.76139451	      6.28594530	      0.10971044	     26.69671248	      1.26768518	      0.00000000	     -4.93817087	      0.32236800	      2.57194035	      3.73983975	      0.06527252	     26.71460388	      3.68648096	      0.00000000	     -0.00135223	      0.05977967	      0.09464898	     -0.00251122	      0.07950696	      0.10056454	     -0.00222158	      0.14534828	      0.10056454	     -0.00154546	      0.14534828	      0.08281786	     -0.00125568	      0.12190270	      0.07690230	     -0.00077266	      0.09259870	      0.07098674	     -0.00965883	      0.67623955	      0.52640925	      0.00000000	      0.00000000	     18.80845886	     -2.84861135	     -2.96007461	     10.84819317	    -10.13473850	    122.49866951	      9.36072242	      5.11088584	     12.65414884	     -6.34710576	      6.68814616	    -16.34307584	     59.36431737	     30.56562949	     87.09066209	     -6.11558572	     -6.08034760
      3.20338983	     -1.14179695	     -1.25805529	     92.36326088	      0.18628440	      1.03922328	      0.35944957	     -6.57983027	     -0.03141616	     -7.68639880	      5.29301643	      0.09238056	     26.03483191	      1.03128987	      0.00000000	     -4.75606857	      0.34402430	      2.91341987	      3.44097923	      0.06005642	     26.32700115	      3.39669394	      0.00000000	      0.00646657	      0.06812539	     -0.00324686	      0.01200906	      0.09060677	     -0.00344979	      0.01062392	      0.16564008	     -0.00344979	      0.00739064	      0.16564008	     -0.00284100	      0.00600485	      0.13892130	     -0.00263808	      0.00369500	      0.10552623	     -0.00243515	      0.04619004	      0.77064806	     -0.01805807	      0.00000000	      0.00000000	     19.47190082	     -2.89427849	     -2.60386396	     10.50027005	    -10.83298307	    122.80495630	      9.57966583	      5.02363203	     11.08204336	     -3.80911378	      5.44327554	    -16.53867726	     58.92193393	     29.07140401	     86.38188450	     -7.21232363	     -5.74316189
      3.22033898	     -1.09999991	     -1.64067954	     92.82576056	      0.18492902	      1.03798980	      0.36108055	     -6.68607755	      0.10532606	     -7.78741870	      4.38165412	      0.07647429	     25.17402966	      0.23161710	      0.00000000	     -4.40772909	      0.34194986	      3.77683762	      3.24855827	      0.05669804	     25.99986584	      2.78847242	      0.00000000	      0.02054436	      0.07728117	     -0.15445670	      0.03815293	      0.10278395	     -0.16411024	      0.03375232	      0.18790143	     -0.16411024	      0.02348015	      0.18790143	     -0.13514961	      0.01907749	      0.15759176	     -0.12549607	      0.01173905	      0.11970853	     -0.11584252	      0.14674629	      0.87422004	     -0.85904182	      0.00000000	      0.00000000	     20.31452766	     -2.51157935	     -1.87079230	     10.04795071	    -11.45436135	    122.88799350	      9.70297406	      4.87025524	      8.99322064	     -1.63354482	      4.15411174	    -16.53973894	     58.38378470	     27.21412766	     85.00672437	     -8.72431574	     -5.86773830
      3.23728814	     -1.16748195	     -2.08061792	     92.96291577	      0.18377668	      1.03659767	      0.36314666	     -6.53545036	      0.01189183	     -8.15681568	      3.80929675	      0.06648477	     24.51967902	     -0.11790816	      0.00000000	     -4.01160277	      0.49223965	      4.02424293	      3.06614772	      0.05351437	     25.83513402	      2.66887926	      0.00000000	      0.02944720	      0.07350450	     -0.15941820	      0.05468640	      0.09776099	     -0.16938184	      0.04837881	      0.17871885	     -0.16938184	      0.03365521	      0.17871885	     -0.13949093	      0.02734467	      0.14989038	     -0.12952729	      0.01682613	      0.11385848	     -0.11956365	      0.21033843	      0.83149764	     -0.88663621	      0.00000000	      0.00000000	     21.47499011	     -2.18002859	     -1.79856763	      9.22510578	    -12.03314770	    122.91328027	      9.13014666	      4.82619882	      7.95370770	     -0.91968708	      3.42286024	    -16.37922972	     58.16921377	     25.21345700	     84.33861354	     -9.30058817	     -5.33545034
